<svg width="12" height="12" viewBox="0 0 12 12" fill="none" xmlns="http://www.w3.org/2000/svg">
<path fill-rule="evenodd" clip-rule="evenodd" d="M6 11C6.65661 11 7.30679 10.8707 7.91342 10.6194C8.52005 10.3681 9.07124 9.99983 9.53553 9.53553C9.99983 9.07124 10.3681 8.52004 10.6194 7.91342C10.8707 7.30679 11 6.65661 11 6C11 5.34339 10.8707 4.69321 10.6194 4.08658C10.3681 3.47995 9.99983 2.92876 9.53553 2.46447C9.07124 2.00017 8.52005 1.63188 7.91342 1.3806C7.30679 1.12933 6.65661 1 6 1C4.67392 1 3.40215 1.52678 2.46447 2.46447C1.52678 3.40215 1 4.67392 1 6C1 7.32608 1.52678 8.59785 2.46447 9.53553C3.40215 10.4732 4.67392 11 6 11ZM5.87111 8.02222L8.64889 4.68889L7.79556 3.97778L5.40667 6.84389L4.17056 5.60722L3.385 6.39278L5.05167 8.05944L5.48167 8.48944L5.87111 8.02222Z" fill="#2E7528"/>
</svg>
