<svg width="12" height="12" viewBox="0 0 12 12" fill="none" xmlns="http://www.w3.org/2000/svg">
<path d="M3.49999 4.92857V7.07143C3.49999 7.42647 3.24816 7.71429 2.93749 7.71429H0.5625C0.251836 7.71429 0 7.42647 0 7.07143V4.92857C0 4.57353 0.251836 4.28571 0.5625 4.28571H2.93749C3.24816 4.28571 3.49999 4.57353 3.49999 4.92857ZM0 9.21429V11.3571C0 11.7122 0.251836 12 0.5625 12H2.93749C3.24816 12 3.49999 11.7122 3.49999 11.3571V9.21429C3.49999 8.85924 3.24816 8.57143 2.93749 8.57143H0.5625C0.251836 8.57143 0 8.85924 0 9.21429ZM2.93749 0H0.5625C0.251836 0 0 0.287813 0 0.642857V2.78571C0 3.14076 0.251836 3.42857 0.5625 3.42857H2.93749C3.24816 3.42857 3.49999 3.14076 3.49999 2.78571V0.642857C3.49999 0.287813 3.24816 0 2.93749 0ZM4.81249 12H11.4375C11.7482 12 12 11.7122 12 11.3571V9.21429C12 8.85924 11.7482 8.57143 11.4375 8.57143H4.81249C4.50183 8.57143 4.24999 8.85924 4.24999 9.21429V11.3571C4.24999 11.7122 4.50183 12 4.81249 12ZM4.24999 0.642857V2.78571C4.24999 3.14076 4.50183 3.42857 4.81249 3.42857H11.4375C11.7482 3.42857 12 3.14076 12 2.78571V0.642857C12 0.287813 11.7482 0 11.4375 0H4.81249C4.50183 0 4.24999 0.287813 4.24999 0.642857ZM4.81249 7.71429H11.4375C11.7482 7.71429 12 7.42647 12 7.07143V4.92857C12 4.57353 11.7482 4.28571 11.4375 4.28571H4.81249C4.50183 4.28571 4.24999 4.57353 4.24999 4.92857V7.07143C4.24999 7.42647 4.50183 7.71429 4.81249 7.71429Z" fill="#444444"/>
</svg>
