<svg width="16" height="16" viewBox="0 0 16 16" fill="none" xmlns="http://www.w3.org/2000/svg">
<path d="M11.2 6.39995C11.2 7.24864 10.8628 8.06258 10.2627 8.66269C9.66261 9.26281 8.84868 9.59995 7.99999 9.59995C7.15129 9.59995 6.33736 9.26281 5.73725 8.66269C5.13713 8.06258 4.79999 7.24864 4.79999 6.39995C4.79999 5.55126 5.13713 4.73733 5.73725 4.13721C6.33736 3.53709 7.15129 3.19995 7.99999 3.19995C8.84868 3.19995 9.66261 3.53709 10.2627 4.13721C10.8628 4.73733 11.2 5.55126 11.2 6.39995Z" fill="#444444"/>
<path fill-rule="evenodd" clip-rule="evenodd" d="M7.6736 15.9936C3.4068 15.8224 0 12.3088 0 8C0 3.5816 3.5816 0 8 0C12.4184 0 16 3.5816 16 8C16 12.4184 12.4184 16 8 16H7.8904C7.81787 16 7.7456 15.9979 7.6736 15.9936ZM2.8664 13.048C2.80659 12.8762 2.78623 12.6932 2.80683 12.5125C2.82744 12.3318 2.88848 12.158 2.98543 12.0041C3.08238 11.8502 3.21274 11.7201 3.36685 11.6235C3.52095 11.5269 3.69484 11.4662 3.8756 11.446C6.994 11.1008 9.0252 11.132 12.1284 11.4532C12.3094 11.472 12.4837 11.532 12.6381 11.6284C12.7924 11.7248 12.9227 11.8551 13.0191 12.0095C13.1155 12.1639 13.1753 12.3382 13.1941 12.5192C13.2129 12.7002 13.1902 12.8831 13.1276 13.054C14.4576 11.7084 15.2025 9.89199 15.2 8C15.2 4.0236 11.9764 0.8 8 0.8C4.0236 0.8 0.8 4.0236 0.8 8C0.8 9.9664 1.5884 11.7488 2.8664 13.048Z" fill="#444444"/>
</svg>
