<svg width="12" height="13" viewBox="0 0 12 13" fill="none" xmlns="http://www.w3.org/2000/svg">
<path d="M0 4.7895C0 3.59834 -3.57628e-08 3.00339 0.3516 2.63329C0.7032 2.26318 1.2684 2.26318 2.4 2.26318H9.6C10.7316 2.26318 11.2968 2.26318 11.6484 2.63329C12 3.00339 12 3.59834 12 4.7895C12 5.08697 12 5.23603 11.9124 5.32887C11.8242 5.42108 11.682 5.42108 11.4 5.42108H0.6C0.3174 5.42108 0.1758 5.42108 0.0875999 5.32887C-5.36442e-08 5.23603 0 5.08634 0 4.7895Z" fill="#444444"/>
<path fill-rule="evenodd" clip-rule="evenodd" d="M0 10.4738C0 11.665 -3.57628e-08 12.2599 0.3516 12.63C0.7032 13.0001 1.2684 13.0001 2.4 13.0001H9.6C10.7316 13.0001 11.2968 13.0001 11.6484 12.63C12 12.2599 12 11.665 12 10.4738V7.31591C12 7.01843 12 6.86938 11.9124 6.77654C11.8242 6.68433 11.682 6.68433 11.4 6.68433H0.6C0.3174 6.68433 0.1758 6.68433 0.0875999 6.77654C-5.36442e-08 6.86938 0 7.01906 0 7.31591V10.4738ZM3 8.57906C3 8.28159 3 8.13254 3.0876 8.03969C3.1758 7.94748 3.318 7.94748 3.6 7.94748H4.8C5.0826 7.94748 5.2242 7.94748 5.3124 8.03969C5.4 8.13254 5.4 8.28159 5.4 8.57906C5.4 8.87654 5.4 9.02559 5.3124 9.11843C5.2242 9.21064 5.082 9.21064 4.8 9.21064H3.6C3.3174 9.21064 3.1758 9.21064 3.0876 9.11843C3 9.02559 3 8.87591 3 8.57906ZM3.0876 10.566C3 10.6589 3 10.8085 3 11.1054C3 11.4022 3 11.5519 3.0876 11.6447C3.1758 11.737 3.318 11.737 3.6 11.737H4.8C5.0826 11.737 5.2242 11.737 5.3124 11.6447C5.4 11.5519 5.4 11.4022 5.4 11.1054C5.4 10.8085 5.4 10.6589 5.3124 10.566C5.2242 10.4738 5.082 10.4738 4.8 10.4738H3.6C3.3174 10.4738 3.1758 10.4738 3.0876 10.566ZM6.6 8.57906C6.6 8.28159 6.6 8.13254 6.6876 8.03969C6.7758 7.94748 6.918 7.94748 7.2 7.94748H8.4C8.6826 7.94748 8.8242 7.94748 8.9124 8.03969C9 8.13254 9 8.28159 9 8.57906C9 8.87654 9 9.02559 8.9124 9.11843C8.8242 9.21064 8.682 9.21064 8.4 9.21064H7.2C6.9174 9.21064 6.7758 9.21064 6.6876 9.11843C6.6 9.02559 6.6 8.87591 6.6 8.57906ZM6.6876 10.566C6.6 10.6589 6.6 10.8085 6.6 11.1054C6.6 11.4022 6.6 11.5519 6.6876 11.6447C6.7758 11.737 6.9174 11.737 7.2 11.737H8.4C8.6826 11.737 8.8242 11.737 8.9124 11.6447C9 11.5519 9 11.4022 9 11.1054C9 10.8085 9 10.6589 8.9124 10.566C8.8242 10.4738 8.682 10.4738 8.4 10.4738H7.2C6.9174 10.4738 6.7758 10.4738 6.6876 10.566Z" fill="#444444"/>
<path d="M3 1V2.89474M9 1V2.89474" stroke="#444444" stroke-width="2" stroke-linecap="round"/>
</svg>
