<svg width="18" height="19" viewBox="0 0 18 19" fill="none" xmlns="http://www.w3.org/2000/svg">
<path d="M1.5 17H16.5" stroke="#9CA3AF" stroke-width="1.5" stroke-miterlimit="10" stroke-linecap="round" stroke-linejoin="round"/>
<path d="M2.21252 17L2.25002 7.97749C2.25002 7.51999 2.46752 7.08503 2.82752 6.80003L8.07752 2.71252C8.61752 2.29252 9.37502 2.29252 9.92252 2.71252L15.1725 6.79252C15.54 7.07752 15.75 7.51249 15.75 7.97749V17" stroke="#9CA3AF" stroke-width="1.5" stroke-miterlimit="10" stroke-linejoin="round"/>
<path d="M9.75 13.25H8.25C7.6275 13.25 7.125 13.7525 7.125 14.375V17H10.875V14.375C10.875 13.7525 10.3725 13.25 9.75 13.25Z" stroke="#9CA3AF" stroke-width="1.5" stroke-miterlimit="10" stroke-linejoin="round"/>
<path d="M7.125 10.8125H5.625C5.2125 10.8125 4.875 10.475 4.875 10.0625V8.9375C4.875 8.525 5.2125 8.1875 5.625 8.1875H7.125C7.5375 8.1875 7.875 8.525 7.875 8.9375V10.0625C7.875 10.475 7.5375 10.8125 7.125 10.8125Z" stroke="#9CA3AF" stroke-width="1.5" stroke-miterlimit="10" stroke-linejoin="round"/>
<path d="M12.375 10.8125H10.875C10.4625 10.8125 10.125 10.475 10.125 10.0625V8.9375C10.125 8.525 10.4625 8.1875 10.875 8.1875H12.375C12.7875 8.1875 13.125 8.525 13.125 8.9375V10.0625C13.125 10.475 12.7875 10.8125 12.375 10.8125Z" stroke="#9CA3AF" stroke-width="1.5" stroke-miterlimit="10" stroke-linejoin="round"/>
<path d="M14.25 5.75L14.2275 3.5H10.9275" stroke="#9CA3AF" stroke-width="1.5" stroke-miterlimit="10" stroke-linecap="round" stroke-linejoin="round"/>
</svg>
