<svg width="18" height="17" viewBox="0 0 18 17" fill="none" xmlns="http://www.w3.org/2000/svg">
<path d="M16.4775 13.2475C16.4775 13.5175 16.4175 13.795 16.29 14.065C16.1625 14.335 15.9975 14.59 15.78 14.83C15.4125 15.235 15.0075 15.5275 14.55 15.715C14.1 15.9025 13.6125 16 13.0875 16C12.3225 16 11.505 15.82 10.6425 15.4525C9.78 15.085 8.9175 14.59 8.0625 13.9675C7.2 13.3375 6.3825 12.64 5.6025 11.8675C4.83 11.0875 4.1325 10.27 3.51 9.415C2.895 8.56 2.4 7.705 2.04 6.8575C1.68 6.0025 1.5 5.185 1.5 4.405C1.5 3.895 1.59 3.4075 1.77 2.9575C1.95 2.5 2.235 2.08 2.6325 1.705C3.1125 1.2325 3.6375 1 4.1925 1C4.4025 1 4.6125 1.045 4.8 1.135C4.995 1.225 5.1675 1.36 5.3025 1.555L7.0425 4.0075C7.1775 4.195 7.275 4.3675 7.3425 4.5325C7.41 4.69 7.4475 4.8475 7.4475 4.99C7.4475 5.17 7.395 5.35 7.29 5.5225C7.1925 5.695 7.05 5.875 6.87 6.055L6.3 6.6475C6.2175 6.73 6.18 6.8275 6.18 6.9475C6.18 7.0075 6.1875 7.06 6.2025 7.12C6.225 7.18 6.2475 7.225 6.2625 7.27C6.3975 7.5175 6.63 7.84 6.96 8.23C7.2975 8.62 7.6575 9.0175 8.0475 9.415C8.4525 9.8125 8.8425 10.18 9.24 10.5175C9.63 10.8475 9.9525 11.0725 10.2075 11.2075C10.245 11.2225 10.29 11.245 10.3425 11.2675C10.4025 11.29 10.4625 11.2975 10.53 11.2975C10.6575 11.2975 10.755 11.2525 10.8375 11.17L11.4075 10.6075C11.595 10.42 11.775 10.2775 11.9475 10.1875C12.12 10.0825 12.2925 10.03 12.48 10.03C12.6225 10.03 12.7725 10.06 12.9375 10.1275C13.1025 10.195 13.275 10.2925 13.4625 10.42L15.945 12.1825C16.14 12.3175 16.275 12.475 16.3575 12.6625C16.4325 12.85 16.4775 13.0375 16.4775 13.2475Z" stroke="#9CA3AF" stroke-width="1.5" stroke-miterlimit="10"/>
</svg>
