<svg width="85" height="85" viewBox="0 0 85 85" fill="none" xmlns="http://www.w3.org/2000/svg">
<path d="M72.2001 9.6455C71.5361 10.3594 70.3076 12.4512 69.8759 13.6133C69.4941 14.626 69.6103 15.1572 70.2246 15.3564C70.5898 15.4726 71.3867 15.0742 71.3867 14.7588C71.3867 14.3935 72.7314 11.7373 73.3125 10.9238C73.8437 10.21 73.9101 10.0273 73.7773 9.6621C73.5449 8.96483 72.831 8.96483 72.2001 9.6455Z" fill="black"/>
<path d="M76.168 14.6924C72.7315 16.8838 72.3496 17.2656 72.9639 17.9297C73.1299 18.1123 73.4121 18.2617 73.5947 18.2617C73.877 18.2617 79.3057 14.9414 80.0694 14.3105C80.4014 14.0283 80.4512 13.2314 80.1524 12.999C79.5879 12.5674 79.3223 12.667 76.168 14.6924Z" fill="black"/>
<path d="M11.5049 14.5263C9.86131 15.0244 8.6826 16.0371 7.85252 17.6474C7.45409 18.3945 7.38768 18.7597 7.33787 20.3535L7.27147 22.1796L6.49119 22.5283C5.4951 22.9931 4.69823 23.8398 3.66893 25.5498C2.65623 27.2099 2.37401 28.0898 2.14158 30.2148C1.97557 31.6425 2.04198 32.7382 2.88866 42.1679C3.4033 47.8789 4.16698 56.3955 4.56541 61.0937C4.98045 65.7919 5.41209 70.0419 5.54491 70.5234C6.19237 72.8974 7.6201 74.0761 10.5752 74.6406C12.0195 74.9062 14.8916 75.0888 22.8271 75.4042C30.5469 75.7031 72.9639 75.6865 74.0264 75.3876C75.0059 75.1054 75.8691 74.2421 75.8691 73.5615C75.8691 72.499 74.956 72.0175 72.5488 71.8017L71.2871 71.7021L71.9014 71.0546C73.0967 69.7929 73.0469 70.1582 74.873 51.5976C75.9355 40.8398 76.5166 34.3486 76.4502 33.8671C76.1348 31.7753 74.4248 30.0322 72.3994 29.7333L71.6357 29.6337L71.5527 24.4873C71.4697 19.374 71.4697 19.3408 71.0381 18.4277C70.457 17.1826 69.4111 16.1699 68.0996 15.5556L66.9873 15.041L59.2676 14.9082C44.459 14.6757 15.5058 14.2773 13.8623 14.2939C12.9492 14.2939 11.8867 14.3935 11.5049 14.5263ZM38.5156 16.6015C69.3613 17.0332 66.6885 16.9667 67.4853 17.3818C67.8506 17.581 68.3818 17.9794 68.6807 18.2949C69.6933 19.3408 69.7266 19.5732 69.7266 24.9023V29.7167L59.8984 29.6835L50.0537 29.6337L49.2236 29.2353C48.6758 28.9697 47.9287 28.3388 47.0654 27.4091C43.4297 23.4912 42.5166 22.8271 40.3584 22.4121C39.7939 22.3124 33.917 22.246 24.3047 22.246H9.13084V20.8681C9.14745 18.6601 9.82811 17.3818 11.3555 16.6679C12.4014 16.1865 9.59569 16.1865 38.5156 16.6015ZM41.5869 24.6699C42.3838 25.0849 43.0312 25.666 44.8408 27.6582C46.0693 29.0195 47.4141 30.331 47.8291 30.5966C49.3398 31.5429 49.2568 31.5429 60.7783 31.5429C67.834 31.5429 71.6523 31.6093 72.2168 31.7255C73.2461 31.9414 74.2588 32.8378 74.5078 33.7343C74.6406 34.2158 74.3252 37.9511 73.0137 51.332C71.1875 70.1416 71.3037 69.3281 70.0088 70.1914L69.3281 70.6396L40.2422 70.6894L11.1728 70.7226L10.3594 70.1914C9.7617 69.7763 9.47948 69.4443 9.26366 68.8964C8.88182 67.8837 5.24608 27.0273 5.4785 26.2304C5.69432 25.4833 6.35838 24.6699 7.00584 24.3544C7.50389 24.1054 9.01463 24.0722 24.0723 24.122L40.5908 24.1552L41.5869 24.6699Z" fill="black"/>
<path d="M49.3398 37.204C48.9414 37.3534 48.6425 37.9345 48.7587 38.3661C48.8086 38.5155 49.6552 39.4452 50.6513 40.4413L52.4609 42.2343L50.7177 44.0106C48.875 45.87 48.6591 46.3183 49.2734 46.8661C49.8877 47.4306 50.2861 47.2147 52.1123 45.4052L53.872 43.6786L55.7148 45.5214C57.6572 47.4306 58.1386 47.6962 58.7197 47.0985C59.3173 46.5175 59.0517 46.036 57.1425 44.0936L55.2998 42.2509L56.7773 40.7401C58.3544 39.1464 58.5703 38.6649 57.9726 38.1337C57.375 37.5858 56.9599 37.785 55.3828 39.3456L53.8554 40.8397L52.0625 39.0302C51.0664 38.0341 50.1367 37.1874 49.9873 37.1376C49.8378 37.1044 49.539 37.1376 49.3398 37.204Z" fill="black"/>
<path d="M24.5869 40.4248L22.4785 42.5L20.6689 40.6738C19.6562 39.6611 18.7099 38.7979 18.5439 38.748C18.0459 38.582 17.4316 39.1133 17.4316 39.7109C17.4316 40.1426 17.7139 40.5078 19.2578 42.0684L21.0674 43.9111L19.2246 45.7539C17.8301 47.165 17.3984 47.7129 17.3984 48.0449C17.3818 48.6426 17.7139 48.9746 18.3115 48.9746C18.7265 48.9746 19.125 48.6592 20.6523 47.1484L22.4951 45.3389L24.0889 46.8994C25.4004 48.1943 25.7656 48.4766 26.1806 48.4766C26.7783 48.4766 27.1103 48.1445 27.1103 47.5469C27.1103 47.2148 26.7119 46.7168 25.5 45.5215L23.9062 43.9277L25.9814 41.8193C28.1562 39.6279 28.3389 39.2959 27.7246 38.6816C27.1103 38.0674 26.7783 38.25 24.5869 40.4248Z" fill="black"/>
<path d="M36.125 55.2002C34.5146 55.5322 32.9873 56.0635 31.5264 56.7939C29.2354 57.9395 26.2305 60.4629 26.2305 61.2598C26.2305 61.6914 26.7949 62.2559 27.2266 62.2559C27.4092 62.2559 28.1895 61.6748 28.9863 60.9443C34.9463 55.4824 44.0605 55.4658 50.0039 60.9111C51.0996 61.9072 51.6807 62.0068 52.1123 61.2266C52.4443 60.6455 52.2451 60.2803 50.8838 59.1016C48.958 57.458 46.418 56.1299 43.8281 55.4492C42.0186 54.9678 37.8848 54.835 36.125 55.2002Z" fill="black"/>
<path d="M77.9443 20.1708C76.583 20.2871 75.3711 20.4033 75.2549 20.4033C74.9229 20.4365 74.541 20.9179 74.541 21.3164C74.541 21.5322 74.6904 21.831 74.873 21.997C75.1719 22.2626 75.3545 22.2626 78.8076 22.0136C82.0615 21.7646 82.46 21.6982 82.7256 21.3828C83.0742 20.9677 83.0742 20.7685 82.7422 20.2871C82.4434 19.8554 81.9121 19.8388 77.9443 20.1708Z" fill="black"/>
</svg>
