<svg width="24" height="24" viewBox="0 0 24 24" fill="none" xmlns="http://www.w3.org/2000/svg">
<path fill-rule="evenodd" clip-rule="evenodd" d="M12 1.5C11.6022 1.5 11.2206 1.65804 10.9393 1.93934C10.658 2.22064 10.5 2.60218 10.5 3V3.15C8.80596 3.4958 7.28341 4.41627 6.19004 5.75565C5.09668 7.09502 4.49965 8.77102 4.5 10.5V16.5L2.6925 18.492C1.818 19.4565 2.502 21 3.8025 21H9.402C9.66532 21.456 10.044 21.8347 10.5001 22.098C10.9561 22.3613 11.4734 22.4999 12 22.4999C12.5266 22.4999 13.0439 22.3613 13.4999 22.098C13.956 21.8347 14.3347 21.456 14.598 21H20.1975C21.498 21 22.182 19.455 21.3075 18.492L19.5 16.5V10.5C19.5004 8.77102 18.9033 7.09502 17.81 5.75565C16.7166 4.41627 15.194 3.4958 13.5 3.15V3C13.5 2.60218 13.342 2.22064 13.0607 1.93934C12.7794 1.65804 12.3978 1.5 12 1.5ZM6.75 17.37L6.165 18.012L5.496 18.75H18.504L17.8335 18.012L17.25 17.3685V10.5C17.25 9.81056 17.1142 9.12787 16.8504 8.49091C16.5865 7.85395 16.1998 7.2752 15.7123 6.78769C15.2248 6.30018 14.646 5.91347 14.0091 5.64963C13.3721 5.3858 12.6894 5.25 12 5.25C11.3106 5.25 10.6279 5.3858 9.99091 5.64963C9.35395 5.91347 8.7752 6.30018 8.28769 6.78769C7.80018 7.2752 7.41347 7.85395 7.14963 8.49091C6.8858 9.12787 6.75 9.81056 6.75 10.5V17.37Z" fill="#444444"/>
</svg>
